<svg role="img" aria-label="Satinwood Talent" xmlns="http://www.w3.org/2000/svg" xmlns:xlink="http://www.w3.org/1999/xlink" xmlns:inkscape="http://www.inkscape.org/namespaces/inkscape" version="1.1" viewBox="14.50 16.00 614.50 75.50">
<defs>
<path id="fofont_1_230" d="M.16400147 .5180054C.16400147 .4920044 .17066448 .46950279 .18399048 .4505005 .19732666 .4314982 .2144928 .41433207 .23548889 .39900209 .25649516 .3836721 .27866618 .3686727 .30200196 .3540039 .32733155 .33866374 .35149638 .32232667 .37449647 .30499269 .39749656 .28766886 .41649375 .26783753 .43148805 .24549866 .44649253 .22316997 .45399476 .19600423 .45399476 .16400147 .45399476 .1293335 .44499208 .09883118 .4269867 .07249451 .4089915 .04616801 .38416038 .025502524 .3524933 .010498047 .3208262-.0044962565 .2836609-.011993408 .24099732-.011993408 .22300212-.011993408 .20416768-.010325114 .18449402-.0069885256 .16483052-.0036621094 .14649964 .0010019938 .12950135 .007003784 .11250305 .013005574 .09866842 .019337973 .08799744 .026000977 .08533224 .028004965 .08316549 .03033956 .08149719 .03300476 .079828899 .035669965 .07866415 .039667768 .07800293 .04499817L.072006229 .19599915C.07133484 .19933574 .0728302 .2011668 .07649231 .20149231 .08016459 .201828 .08233134 .20066326 .08299255 .19799805 .09099833 .17799886 .10049947 .15682984 .11149597 .13449097 .12250265 .11216227 .13533528 .091664638 .1499939 .07299805 .16466268 .054331464 .18149822 .039164228 .20050049 .027496338 .21950276 .015828452 .24133809 .009994507 .26600648 .009994507 .28334046 .009994507 .29967246 .012995402 .31500245 .018997193 .33033244 .024998984 .34299723 .03549703 .35299684 .050491334 .36299644 .06549581 .36799623 .085998538 .36799623 .11199951 .36799623 .14333089 .36082969 .17016094 .34649659 .19248963 .33216349 .21482849 .31399537 .23432923 .2919922 .25099183 .26999919 .26766459 .2470042 .28333537 .2230072 .29800416 .19967143 .31333415 .17733257 .32899986 .1559906 .34500123 .13465882 .3610026 .11715698 .37950135 .10348511 .40049745 .0898234 .4215037 .08299255 .44700624 .08299255 .477005 .08299255 .5136668 .09299215 .5436656 .11299133 .56700137 .13300069 .5903371 .15850322 .6076711 .1894989 .6190033 .22049459 .6303355 .2523295 .6360016 .28500367 .6360016 .30699668 .6360016 .32932536 .6339976 .35198976 .6299896 .3746643 .6259918 .3940023 .6203308 .41000367 .6130066 .41600547 .6110026 .42000328 .60833236 .42199708 .6049957 .42400108 .6016693 .42500306 .59800216 .42500306 .59399417L.42700196 .45899964C.42700196 .45633445 .4255015 .45466615 .4225006 .45399476 .41949974 .45333354 .41733299 .45399986 .41600038 .45599366 .4126638 .46599327 .40766398 .47982789 .40100099 .49749757 .39433799 .51516726 .38500468 .5329997 .3730011 .5509949 .36099754 .56900027 .34599305 .5843353 .32798768 .5970001 .30999247 .6096649 .28799439 .6159973 .2619934 .6159973 .24199422 .6159973 .22466024 .61199447 .20999146 .60398867 .19533284 .59599307 .18400066 .5848287 .17599488 .5704956 .16799927 .55616256 .16400147 .5386658 .16400147 .5180054Z"/>
<path id="fofont_1_1041" d="M.31700135-.005996704C.31433616-.007329305 .31133525-.0079956059 .30799867-.0079956059 .29733787-.0079956059 .28667198-.0003306071 .27600099 .01499939 .26533 .030329386 .2599945 .052663167 .2599945 .08200073V.2579956C.2599945 .29999797 .25582887 .33033244 .24749756 .34899903 .23916626 .36766563 .22599793 .3769989 .20799256 .3769989 .19132996 .3769989 .17849732 .37216697 .16949463 .36250306 .16050212 .35283915 .15400188 .34183757 .1499939 .3294983 .1459961 .3171692 .14366658 .30667115 .14300537 .29800416 .14100139 .2813314 .13583374 .2686615 .12750244 .2599945 .11917114 .2513275 .10733541 .24699402 .09199524 .24699402 .076665248 .24699402 .06566366 .25049339 .05899048 .25749208 .052327474 .26450096 .04899597 .27266947 .04899597 .28199769 .04899597 .29666648 .055826826 .3108317 .069488529 .3244934 .0831604 .33816529 .100494388 .35033164 .12149048 .36099244 .14249675 .37166343 .16433208 .38016258 .18699646 .38648988 .20966085 .39282737 .22966004 .3959961 .24699402 .3959961 .2743276 .3959961 .29682923 .3873291 .3144989 .36999513 .33216859 .35266114 .34100343 .32532756 .34100343 .28799439V.10800171C.34100343 .08733114 .34433494 .07166036 .35099793 .06098938 .35766093 .05032857 .36732994 .04499817 .38000489 .04499817 .39066569 .04499817 .40266419 .047999067 .41600038 .054000856 .41933695 .055333456 .42167155 .054163618 .42300416 .050491334 .42433677 .046829225 .42333476 .044331869 .41999818 .042999269L.31700135-.005996704M.1289978-.007003784C.10100301-.007003784 .08016968-.00033569337 .0664978 .013000488 .0528361 .02633667 .04600525 .04333496 .04600525 .06399536 .04600525 .08266195 .051005048 .097829189 .06100464 .10949707 .071004237 .121164958 .085001628 .13082886 .102996829 .13848877 .1210022 .14615886 .14100139 .15399678 .16299439 .16200257L.27000428 .20199585 .272995 .18699646 .19999695 .15600586C.19200135 .15333049 .18333435 .14949036 .17399597 .14448548 .16466777 .13949077 .15683492 .1329956 .15049744 .125 .14417012 .117004398 .14100647 .1063385 .14100647 .09300232 .14100647 .07700094 .14633687 .06416321 .15699768 .054489137 .16766866 .044825239 .17966716 .039993287 .19299317 .039993287 .19899495 .039993287 .20499675 .040827436 .21099854 .042495729 .21700032 .04416402 .22399903 .047663373 .23199463 .052993776L.28599549 .08900452 .28700257 .07400513 .21600342 .024002076C.20066326 .013331096 .18649292 .005493164 .17349243 .00048828127 .16050212-.004506429 .14567058-.007003784 .1289978-.007003784Z"/>
<path id="fofont_1_866" d="M.18499756-.011993408C.16899617-.011993408 .15316265-.009328206 .13749695-.0039978029 .12183126 .001332601 .10883077 .0103302 .09849548 .022994996 .088160198 .035669965 .08299255 .053670248 .08299255 .07699585V.30299378C.08299255 .31766258 .0814921 .32899476 .07849121 .33699037 .07550049 .34499613 .07033793 .35049949 .06300354 .35350038 .055669149 .35650126 .045333864 .3580017 .03199768 .3580017 .02933248 .3580017 .027999878 .3606669 .027999878 .3659973 .027999878 .37132774 .02933248 .37399293 .03199768 .37399293 .06332906 .3753357 .0888265 .38283793 .10848999 .39649964 .12816365 .4101715 .14199829 .42967225 .1499939 .45500184 .15066529 .45766703 .15333049 .45899964 .1579895 .45899964 .16265869 .45899964 .16499329 .45766703 .16499329 .45500184V.11000061C.16499329 .08266703 .17182414 .06299845 .18548584 .050994874 .19915772 .039001466 .21699524 .03300476 .23899842 .03300476 .2549998 .03300476 .26983134 .036168416 .28349305 .042495729 .29716493 .04883321 .30866496 .055669149 .31799317 .06300354 .31999717 .06433614 .32233177 .06350199 .32499696 .0605011 .32766215 .057500204 .32766215 .05499776 .32499696 .052993776 .30032859 .030329386 .27716065 .013829549 .25549317 .0034942628 .23383586-.006830851 .21033733-.011993408 .18499756-.011993408M.29400636 .33599855C.26733399 .34200035 .24149578 .34616599 .2164917 .34849549 .1914978 .35083518 .16466777 .352005 .13600159 .352005V.37600709C.16333516 .37600709 .1898346 .377004 .21549988 .3789978 .24116516 .3810018 .2686666 .3833364 .29800416 .3860016 .29933677 .3860016 .30083213 .383667 .30249024 .3789978 .30415855 .3743286 .30499269 .3686625 .30499269 .3619995 .30499269 .3559977 .3038279 .34999595 .3014984 .34399415 .2991689 .33800254 .29667155 .3353373 .29400636 .33599855Z"/>
<path id="fofont_1_704" d="M.044006349 0C.04200236 0 .041000368 .0019989014 .041000368 .005996704 .041000368 .009994507 .04200236 .011993408 .044006349 .011993408 .06667074 .011993408 .081832889 .01665751 .0894928 .025985718 .09716288 .035324098 .100997928 .053660077 .100997928 .08099365V.2630005C.100997928 .2856649 .09866333 .3021647 .09399414 .3125 .08933512 .3228353 .081339519 .32800294 .070007327 .32800294 .06466675 .32800294 .05866496 .32700096 .052001954 .32499696 .045338949 .32300315 .03800456 .32000224 .02999878 .31599427 .027333579 .31533305 .02516683 .31700135 .023498536 .32099916 .02183024 .32499696 .021998087 .32733155 .024002076 .32800294L.16799927 .39500428C.16933187 .3956655 .17033386 .3959961 .17100525 .3959961 .17367046 .3959961 .1765035 .39449565 .1795044 .39149476 .1825053 .38849388 .18400574 .3859965 .18400574 .3840027 .18400574 .3766683 .18367005 .36333213 .18299866 .34399415 .18233745 .32466636 .18200684 .29800416 .18200684 .26400758V.08099365C.18200684 .053660077 .18583679 .035324098 .1934967 .025985718 .2011668 .01665751 .21633403 .011993408 .23899842 .011993408 .2410024 .011993408 .2420044 .009994507 .2420044 .005996704 .2420044 .0019989014 .2410024 0 .23899842 0 .22566223 0 .21066284 .0003306071 .19400025 .0009918213 .17733765 .001663208 .15967305 .0019989014 .14100647 .0019989014 .1230011 .0019989014 .10549927 .001663208 .08850098 .0009918213 .071502689 .0003306071 .056671144 0 .044006349 0M.13600159 .5010071C.1186676 .5010071 .105163577 .5056712 .0954895 .5149994 .0858256 .52433779 .08099365 .5376689 .08099365 .5549927 .08099365 .5709941 .0858256 .5836589 .0954895 .59298709 .105163577 .60232546 .1186676 .6069946 .13600159 .6069946 .15266419 .6069946 .16549683 .60232546 .17449951 .59298709 .1835022 .5836589 .18800354 .5709941 .18800354 .5549927 .18800354 .51900228 .17066956 .5010071 .13600159 .5010071Z"/>
<path id="fofont_1_760" d="M.30999757 0C.30800376 0 .30700685 .0019989014 .30700685 .005996704 .30700685 .009994507 .30800376 .011993408 .30999757 .011993408 .33266197 .011993408 .34766136 .01665751 .35499574 .025985718 .3623301 .035324098 .3659973 .053660077 .3659973 .08099365V.23100281C.3659973 .26833598 .35916139 .2958323 .3454895 .31349183 .3318278 .3311615 .31033326 .33999635 .28100587 .33999635 .2596639 .33999635 .23782857 .33416239 .21549988 .3224945 .19317119 .31082664 .17467244 .29466249 .16000366 .27400209L.15499878 .28599549C.18099976 .32133485 .20850118 .34883628 .23750305 .36849977 .2665049 .38816325 .29766847 .397995 .33099366 .397995 .3683268 .397995 .396993 .38682557 .4169922 .3644867 .43700157 .342158 .44700624 .31199647 .44700624 .27400209V.08099365C.44700624 .053660077 .45083619 .035324098 .4584961 .025985718 .46616618 .01665751 .4813334 .011993408 .5039978 .011993408 .5060018 .011993408 .5070038 .009994507 .5070038 .005996704 .5070038 .0019989014 .5060018 0 .5039978 0 .491333 0 .47666423 .0003306071 .45999146 .0009918213 .44332887 .001663208 .42566429 .0019989014 .40699769 .0019989014 .38900248 .0019989014 .37150065 .001663208 .3544922 .0009918213 .3374939 .0003306071 .32266236 0 .30999757 0M.041000368 0C.03899638 0 .037994386 .0019989014 .037994386 .005996704 .037994386 .009994507 .03899638 .011993408 .041000368 .011993408 .06366476 .011993408 .07866415 .01665751 .085998538 .025985718 .093332927 .035324098 .09700012 .053660077 .09700012 .08099365V.27200318C.09700012 .29333497 .09466553 .30900065 .08999634 .31900025 .08532715 .32899986 .07699585 .33399964 .06500244 .33399964 .059000654 .33399964 .05166626 .33266703 .042999269 .33000184 .034332277 .32733665 .024998984 .32366944 .01499939 .31900025 .0123341879 .31832887 .0101674399 .31982423 .0084991459 .32348634 .006830851 .3271586 .0069986979 .32933045 .009002686 .33000184L.13999939 .3939972C.14333599 .3953298 .14567058 .3959961 .14700318 .3959961 .15366619 .3959961 .16049703 .3883311 .16749573 .3730011 .17449443 .3576711 .17799378 .3353373 .17799378 .30599977V.08099365C.17799378 .053660077 .18182881 .035324098 .1894989 .025985718 .19716899 .01665751 .21233623 .011993408 .23500061 .011993408 .2370046 .011993408 .23800659 .009994507 .23800659 .005996704 .23800659 .0019989014 .2370046 0 .23500061 0 .22233582 0 .20766704 .0003306071 .19099427 .0009918213 .17433167 .001663208 .15666707 .0019989014 .13800049 .0019989014 .11999512 .0019989014 .102493289 .001663208 .085494998 .0009918213 .068496707 .0003306071 .05366516 0 .041000368 0Z"/>
<path id="fofont_1_906" d="M.45500184 .0010070801 .30599977 .30299378C.29200236 .33233134 .28083293 .35149638 .27249146 .3604889 .26416017 .36949159 .2536621 .37399293 .24099732 .37399293 .23966472 .37399293 .23899842 .37599183 .23899842 .37998963 .23899842 .3839976 .23966472 .3860016 .24099732 .3860016 .25099693 .3860016 .26216126 .3856659 .27449037 .3849945 .28682963 .38433329 .30233256 .3840027 .32099916 .3840027 .34499613 .3840027 .36549378 .38433329 .38249208 .3849945 .39950053 .3856659 .41533409 .3860016 .42999269 .3860016 .43133546 .3860016 .43200685 .3839976 .43200685 .37998963 .43200685 .37599183 .43133546 .37399293 .42999269 .37399293 .41199748 .37399293 .39816285 .3708242 .38848878 .3644867 .37882487 .3581594 .3773295 .34833274 .3840027 .3350067L.5059967 .09399414 .46400453 .022003174 .57499697 .29200746C.5856679 .31866966 .58533737 .33899943 .5740051 .35299684 .5626729 .36699424 .54267379 .37399293 .51400759 .37399293 .5120036 .37399293 .5110016 .37599183 .5110016 .37998963 .5110016 .3839976 .5120036 .3860016 .51400759 .3860016 .5293376 .3860016 .5441691 .3856659 .5585022 .3849945 .57283529 .38433329 .59133407 .3840027 .6139984 .3840027 .6299998 .3840027 .64283248 .38433329 .65249636 .3849945 .6621704 .3856659 .67400619 .3860016 .68800356 .3860016 .6899974 .3860016 .69099429 .3839976 .69099429 .37998963 .69099429 .37599183 .6899974 .37399293 .68800356 .37399293 .66999819 .37399293 .65415957 .36749269 .6404877 .3544922 .626826 .34150187 .6133321 .32000224 .6000061 .2899933L.477005 .0010070801C.47633363-.0016682943 .4728292-.0030059815 .4664917-.0030059815 .4601644-.0030059815 .45633445-.0016682943 .45500184 .0010070801M.21200562 .0010070801 .06399536 .30299378C.04933675 .33300273 .037002565 .3523356 .026992798 .36099244 .016993205 .36965943 .0049947106 .37399293-.009002686 .37399293-.010996501 .37399293-.011993408 .37599183-.011993408 .37998963-.011993408 .3839976-.010996501 .3860016-.009002686 .3860016 .0016682943 .3860016 .013666789 .3856659 .026992798 .3849945 .04032898 .38433329 .057332357 .3840027 .07800293 .3840027 .10133871 .3840027 .121668498 .38433329 .13899231 .3849945 .1563263 .3856659 .17232768 .3860016 .18699646 .3860016 .18900045 .3860016 .19000244 .3839976 .19000244 .37998963 .19000244 .37599183 .18900045 .37399293 .18699646 .37399293 .16900127 .37399293 .15450032 .37132774 .14349365 .3659973 .13249715 .3606669 .13100179 .3503367 .13900757 .3350067L.2649994 .09399414 .22099304 .022003174 .33000184 .28500367 .3540039 .27999879 .23399353 .0010070801C.23333232-.0016682943 .22983296-.0030059815 .22349549-.0030059815 .21716817-.0030059815 .21333821-.0016682943 .21200562 .0010070801Z"/>
<path id="fofont_1_658" d="M.19000244-.013000488C.16199748-.013000488 .1359965-.005167643 .11199951 .010498047 .088002528 .026163737 .068837489 .04832967 .054504396 .07699585 .040171308 .105662029 .03300476 .14033 .03300476 .18099976 .03300476 .22033692 .040334066 .25383506 .054992677 .28149415 .06966146 .30916343 .08849589 .33166505 .11149597 .34899903 .13449605 .366333 .1593272 .3789978 .18598938 .3869934 .21266175 .39499919 .23799642 .39900209 .2619934 .39900209 .28600059 .39900209 .30833436 .3956655 .32899476 .3889923 .3496653 .38232932 .3683319 .3736674 .3849945 .3630066L.3659973 .28700257C.35132853 .31566874 .334493 .337499 .31549073 .3524933 .29649864 .36749778 .27233378 .375 .24299622 .375 .20633443 .375 .1771698 .36216737 .15550232 .33650209 .13383484 .3108368 .1230011 .26933799 .1230011 .21200562 .1230011 .17400106 .1280009 .14149983 .13800049 .11450195 .14800008 .08750407 .16199748 .066838588 .17999268 .052505495 .19799805 .038172407 .21800232 .03100586 .2400055 .03100586 .26733909 .03100586 .29167176 .038670858 .31300355 .054000856 .33433534 .06933085 .35466514 .08766174 .37399293 .10899353L.3829956 .100997928C.3689982 .084996547 .35249839 .06816101 .3334961 .050491334 .3144938 .03283183 .29315696 .017832438 .26948548 .005493164 .24582418-.0068359377 .21932984-.013000488 .19000244-.013000488M.42700196 .7140045V.11399841C.42700196 .090662639 .42933146 .0741628 .43399049 .0644989 .43865968 .054835004 .44666038 .05000305 .45799256 .05000305 .46333314 .05000305 .46983338 .050999959 .4774933 .052993776 .48516337 .05499776 .4936676 .057998659 .503006 .06199646 .5049998 .06332906 .5069936 .06215922 .5089874 .05848694 .5109914 .05482483 .5109965 .052327474 .5090027 .050994874L.3809967-.011001587C.3790029-.011662801 .377004-.011993408 .375-.011993408 .36766563-.011993408 .36099754-.0039978029 .35499574 .011993408 .34899394 .027994791 .34599305 .051330568 .34599305 .08200073V.59199526C.34599305 .6146698 .34399415 .63133749 .33999635 .6419983 .33599855 .65266928 .32799784 .65800479 .31599427 .65800479 .31066386 .65800479 .30466209 .6568349 .2979889 .65449526 .2913259 .6521657 .28399659 .6493327 .27600099 .6459961 .27333579 .6446635 .2710012 .6459961 .2689972 .6499939 .2670034 .6540019 .2670034 .6563365 .2689972 .6569977L.40899659 .723999C.4103292 .7246704 .41166178 .7250061 .41299439 .7250061 .41566978 .7250061 .41867066 .7236684 .42199708 .72099307 .42533366 .7183278 .42700196 .71599838 .42700196 .7140045Z"/>
<path id="fofont_1_2754" d=""/>
<path id="fofont_1_240" d="M.21000672 .6040039C.16933696 .6040039 .13616944 .59133407 .11050415 .56599429 .08483887 .5406647 .06467184 .5033315 .05000305 .45399476 .05000305 .45200096 .048166913 .45116679 .04449463 .4514923 .04083252 .451828 .039001466 .45266215 .039001466 .45399476 .040334066 .46333314 .041666669 .47616578 .042999269 .49249269 .044331869 .5088298 .045832319 .5266622 .04750061 .54599 .049168905 .56532797 .050501508 .5841624 .051498414 .6024933 .05249532 .62083438 .052993776 .63567098 .052993776 .6470032 .052993776 .6503296 .05482483 .6519928 .05848694 .6519928 .06215922 .6519928 .06399536 .6503296 .06399536 .6470032 .06399536 .64033 .06749471 .635493 .07449341 .63249209 .08150228 .62950137 .08933512 .62750247 .09799194 .62649539 .106658939 .6254985 .113993328 .625 .11999512 .625 .17732747 .62299606 .24432881 .621994 .32099916 .621994 .3683319 .621994 .40583293 .6224925 .4335022 .6234894 .46117149 .62449648 .4880066 .625 .51400759 .625 .5380046 .625 .5561676 .6265004 .5684967 .62950137 .580836 .63250228 .5886688 .63933309 .59199526 .6499939 .5926666 .65266928 .5946655 .65400698 .59799197 .65400698 .60132858 .65400698 .6029968 .65266928 .6029968 .6499939 .60233566 .63933309 .6013387 .62483218 .6000061 .6064911 .5986735 .5881602 .5976715 .56882736 .5970001 .54849246 .59632876 .5281677 .59565737 .50950118 .59498599 .49249269 .59432479 .47549439 .59399417 .46266175 .59399417 .45399476 .59399417 .45266215 .592158 .45199586 .5884857 .45199586 .5848236 .45199586 .5826619 .45266215 .58200076 .45399476 .5746663 .5066681 .558665 .5448354 .5339966 .5684967 .5093282 .59216818 .47632853 .6040039 .43499757 .6040039 .41700236 .6040039 .40333558 .60233566 .3939972 .598999 .38466899 .5956624 .37833659 .5894928 .375 .5804901 .37166343 .5714976 .36999513 .55867007 .36999513 .54200747V.08099365C.36999513 .06166585 .37216188 .047002157 .37649537 .037002565 .38082887 .02700297 .38916017 .020334879 .40148927 .016998291 .41382853 .013661702 .43266297 .011993408 .45799256 .011993408 .45999656 .011993408 .46099855 .009994507 .46099855 .005996704 .46099855 .0019989014 .45999656 0 .45799256 0 .43999736 0 .41949974 .0003306071 .39649964 .0009918213 .37349955 .001663208 .34833274 .0019989014 .32099916 .0019989014 .29499818 .0019989014 .2706655 .001663208 .2480011 .0009918213 .22533672 .0003306071 .20433553 0 .18499756 0 .18366497 0 .18299866 .0019989014 .18299866 .005996704 .18299866 .009994507 .18366497 .011993408 .18499756 .011993408 .21033733 .011993408 .2293396 .013661702 .2420044 .016998291 .2546692 .020334879 .26316834 .02700297 .26750184 .037002565 .27183534 .047002157 .27400209 .06166585 .27400209 .08099365V.54400637C.27400209 .56066897 .27250163 .5731659 .26950074 .5814972 .26649986 .5898285 .2603302 .5956624 .25099183 .598999 .24166362 .60233566 .22800191 .6040039 .21000672 .6040039Z"/>
<path id="fofont_1_739" d="M.037002565 0C.034998578 0 .033996583 .0019989014 .033996583 .005996704 .033996583 .009994507 .034998578 .011993408 .037002565 .011993408 .059005739 .011993408 .07400513 .01665751 .08200073 .025985718 .08999634 .035324098 .09399414 .053660077 .09399414 .08099365V.59199526C.09399414 .615331 .09199524 .63216659 .08799744 .64250186 .083999637 .6528371 .07633463 .65800479 .06500244 .65800479 .055664064 .65800479 .041997274 .6540019 .024002076 .6459961 .021998087 .6453349 .0199941 .6470032 .017990113 .651001 .015996298 .6549988 .01566569 .6573334 .016998291 .65800479L.15800476 .723999C.15933736 .7246704 .16066997 .7250061 .16200257 .7250061 .16466777 .7250061 .16766358 .7236684 .17098999 .72099307 .17432659 .7183278 .17599488 .71599838 .17599488 .7140045V.08099365C.17599488 .053660077 .17982991 .035324098 .1875 .025985718 .19517009 .01665751 .21033733 .011993408 .23300171 .011993408 .23499553 .011993408 .23599243 .009994507 .23599243 .005996704 .23599243 .0019989014 .23499553 0 .23300171 0 .22033692 0 .20550029 .0003306071 .18849182 .0009918213 .17149353 .001663208 .15366109 .0019989014 .1349945 .0019989014 .11632792 .0019989014 .09849548 .001663208 .08149719 .0009918213 .0644989 .0003306071 .04966736 0 .037002565 0Z"/>
<path id="fofont_1_1071" d="M.2290039-.011993408C.18700154-.011993408 .15133159-.0029958089 .12199402 .01499939 .092666629 .03300476 .070500697 .05683899 .055496217 .086502078 .04050191 .11616516 .03300476 .14766439 .03300476 .18099976 .03300476 .22099813 .04266866 .2569987 .06199646 .28900147 .081334438 .32100425 .107666019 .34666953 .14099121 .3659973 .17432659 .3853353 .21199544 .39500428 .2539978 .39500428 .29333497 .39500428 .32400004 .385671 .34599305 .3670044 .36799623 .3483378 .3789978 .31933595 .3789978 .27999879 .3789978 .2713318 .3783315 .2643331 .3769989 .2590027 .3756663 .25367228 .3726654 .25100709 .36799623 .25100709H.28599549C.28799949 .28967286 .28349815 .32000224 .27249146 .34199525 .26149497 .3639984 .24333191 .375 .21800232 .375 .18800354 .375 .16449993 .36116538 .14749146 .3334961 .13049317 .305837 .12199402 .26900736 .12199402 .2230072 .12199402 .18433126 .1279958 .15082805 .13999939 .12249756 .15200298 .094167079 .16966756 .07200114 .19299317 .055999757 .21632894 .03999837 .2450002 .03199768 .27900697 .03199768 .29966737 .03199768 .31699626 .03483073 .33099366 .040496828 .34500123 .046162923 .3600057 .053329469 .37600709 .06199646 .3773397 .06332906 .37917076 .06266276 .38150025 .05999756 .38382975 .057332357 .38432823 .05499776 .3829956 .052993776 .35899864 .029668173 .33449809 .013005574 .30949403 .0030059815 .28450013-.006993612 .25767008-.011993408 .2290039-.011993408M.09300232 .25 .09199524 .2669983 .31399537 .2709961V.25100709L.09300232 .25Z"/>
<clipPath id="foclip_2">
<path transform="matrix(.75,0,0,.75,0,0)" d="M342.75703 59.019727H443.557V119.01973H342.75703Z"/>
</clipPath>
</defs>
<use data-text="S" xlink:href="#fofont_1_230" transform="matrix(90,0,0,-90,12,85.664798)" fill="#f4efe2"/>
<use data-text="a" xlink:href="#fofont_1_1041" transform="matrix(90,0,0,-90,57.87301,85.664798)" fill="#f4efe2"/>
<use data-text="t" xlink:href="#fofont_1_866" transform="matrix(90,0,0,-90,95.916019,85.664798)" fill="#f4efe2"/>
<use data-text="i" xlink:href="#fofont_1_704" transform="matrix(90,0,0,-90,126.489009,85.664798)" fill="#f4efe2"/>
<use data-text="n" xlink:href="#fofont_1_760" transform="matrix(90,0,0,-90,150.672,85.664798)" fill="#f4efe2"/>
<use data-text="w" xlink:href="#fofont_1_906" transform="matrix(90,0,0,-90,197.98502,85.664798)" fill="#f4efe2"/>
<use data-text="d" xlink:href="#fofont_1_658" transform="matrix(90,0,0,-90,329.96778,85.664798)" fill="#f4efe2"/>
<use data-text=" " xlink:href="#fofont_1_2754" transform="matrix(90,0,0,-90,376.20079,85.664798)" fill="#f4efe2"/>
<use data-text="T" xlink:href="#fofont_1_240" transform="matrix(90,0,0,-90,397.50376,85.664798)" fill="#f4efe2"/>
<use data-text="a" xlink:href="#fofont_1_1041" transform="matrix(90,0,0,-90,449.13676,85.664798)" fill="#f4efe2"/>
<use data-text="l" xlink:href="#fofont_1_739" transform="matrix(90,0,0,-90,487.17976,85.664798)" fill="#f4efe2"/>
<use data-text="e" xlink:href="#fofont_1_1071" transform="matrix(90,0,0,-90,511.2727,85.664798)" fill="#f4efe2"/>
<use data-text="n" xlink:href="#fofont_1_760" transform="matrix(90,0,0,-90,548.7757,85.664798)" fill="#f4efe2"/>
<use data-text="t" xlink:href="#fofont_1_866" transform="matrix(90,0,0,-90,596.0887,85.664798)" fill="#f4efe2"/>
<g clip-path="url(#clip_2)">
<path transform="matrix(.45000003,0,0,.45000003,257.06776,44.264795)" stroke-width="4.4" stroke-linecap="butt" stroke-miterlimit="4" stroke-linejoin="miter" fill="none" stroke="#c2a24e" d="M99 50C99 74.82434 79.82434 94 55 94 30.175658 94 11 74.82434 11 50 11 25.175658 30.175658 6 55 6 79.82434 6 99 25.175658 99 50Z"/>
<path transform="matrix(.45000003,0,0,.45000003,257.06776,44.264795)" stroke-width="3.7" stroke-linecap="butt" stroke-miterlimit="4" stroke-linejoin="miter" fill="none" stroke="#c2a24e" d="M85 50C85 66.92569 71.92569 80 55 80 38.07431 80 25 66.92569 25 50 25 33.07431 38.07431 20 55 20 71.92569 20 85 33.07431 85 50Z"/>
<path transform="matrix(.45000003,0,0,.45000003,257.06776,44.264795)" stroke-width="4.4" stroke-linecap="butt" stroke-miterlimit="4" stroke-linejoin="miter" fill="none" stroke="#c2a24e" d="M157 50C157 74.82434 137.82434 94 113 94 88.17566 94 69 74.82434 69 50 69 25.175658 88.17566 6 113 6 137.82434 6 157 25.175658 157 50Z"/>
<path transform="matrix(.45000003,0,0,.45000003,257.06776,44.264795)" stroke-width="3.7" stroke-linecap="butt" stroke-miterlimit="4" stroke-linejoin="miter" fill="none" stroke="#c2a24e" d="M143 50C143 66.92569 129.92569 80 113 80 96.07431 80 83 66.92569 83 50 83 33.07431 96.07431 20 113 20 129.92569 20 143 33.07431 143 50Z"/>
</g>
</svg>
